<?xml version="1.0" encoding="utf-8"?>
<!-- Generator: Adobe Illustrator 19.0.0, SVG Export Plug-In . SVG Version: 6.00 Build 0)  -->
<svg version="1.1" id="Layer_1" xmlns="http://www.w3.org/2000/svg" xmlns:xlink="http://www.w3.org/1999/xlink" x="0px" y="0px"
	 viewBox="0 0 157.6 38.3" style="enable-background:new 0 0 157.6 38.3;" xml:space="preserve">
<g id="XMLID_15_" fill="#fff">
	<path id="XMLID_16_" d="M35.4,33.4c-0.4,1.3-1.1,2.4-2.1,3.4s-2.2,1.5-3.8,1.5c-1,0-2-0.3-2.9-0.8c-1-0.5-1.9-1.2-2.9-2.1
		c-1-0.8-2.1-1.8-3.1-2.8c-1.1-1-2.2-2-3.4-3c-1.5,0.5-3.1,0.8-4.6,0.8c-0.6,0-1.2-0.1-1.8-0.2c-0.6-0.1-1.1-0.2-1.5-0.4
		c-0.1,0.6-0.3,1.1-0.4,1.7c-0.1,0.6-0.2,1.2-0.2,1.7c0,0.4,0,0.7,0.1,0.9c0.1,0.2,0.2,0.5,0.2,0.7c0.1,0.2,0.2,0.4,0.4,0.5
		c0,0.1-0.2,0.1-0.5,0.1c-0.4,0-1,0-1.5-0.1c-0.6-0.1-1.1-0.2-1.7-0.5c-0.5-0.2-1-0.6-1.3-1c-0.3-0.4-0.5-1-0.5-1.8
		c0-0.6,0.2-1.3,0.5-2.2C4.6,29,4.8,28.2,5,27.4c-0.3-0.2-0.6-0.6-0.9-1.2c-0.3-0.6-0.5-1.4-0.5-2.3c0-1.3,0.3-2.1,1-2.6
		C5.2,21,6,20.8,6.9,20.8c0.4-1.7,0.8-3.1,1.1-4.3c0.3-1.2,0.6-2.2,0.8-3.1c0.2-0.9,0.3-1.6,0.4-2.3c0.1-0.7,0.1-1.3,0.1-1.9
		c0-1.1-0.1-1.9-0.4-2.6C7.6,7.1,6.7,7.7,6.1,8.4c-0.6,0.7-1,1.4-1.2,2.3c0.2-0.4,0.5-0.7,0.8-1.1c0.3-0.4,0.7-0.7,1-1
		C7.1,8.2,7.4,8,7.6,7.8c0.3-0.2,0.5-0.3,0.6-0.3c0.2,0,0.2,0.1,0.2,0.2L8.3,7.8H8.3c-0.2,0-0.5,0.3-0.9,0.8C7,9.2,6.6,9.8,6.2,10.5
		c-0.4,0.7-0.7,1.3-1,2c-0.3,0.6-0.4,1-0.4,1.2c0,0.2-0.2,0.2-0.4,0.2c-0.2,0-0.5-0.2-1-0.5c-0.5-0.3-1-0.7-1.5-1.2
		c-0.5-0.5-1-1.1-1.3-1.8C0.2,9.8,0,9.1,0,8.4c0-1.5,0.6-2.7,1.7-3.8C2.8,3.6,4.2,2.7,5.8,2c1.6-0.7,3.4-1.2,5.3-1.5
		C13.1,0.2,14.8,0,16.5,0c1.1,0,2.2,0.1,3.4,0.2C21,0.4,22.3,0.6,23.7,1c0.7,0.2,1.5,0.5,2.4,0.9c0.9,0.4,1.7,1,2.5,1.8
		c0.8,0.8,1.5,1.7,2,2.8s0.8,2.4,0.8,3.9c0,1.7-0.3,3.4-0.8,5s-1.3,3.2-2.2,4.6c-0.9,1.5-2,2.8-3.2,4c-1.2,1.2-2.4,2.3-3.7,3.1
		c-0.2,0.2-0.4,0.3-0.6,0.4c1.7,1.1,3.1,2,4.3,2.7c1.2,0.7,2.2,1.2,3.2,1.6c0.9,0.4,1.7,0.6,2.4,0.7c0.7,0.1,1.3,0.2,2,0.2
		c1,0,1.7-0.1,2.2-0.4s0.7-0.4,0.8-0.4c0,0,0.1,0,0.1,0.1c0,0.1,0,0.2-0.1,0.4C35.6,32.7,35.5,33,35.4,33.4z M5.4,26.1
		c0.1-0.2,0.2-0.5,0.2-0.7c0.1-0.2,0.1-0.5,0.2-0.7c-0.3,0.1-0.5,0.3-0.6,0.6C5.1,25.5,5.2,25.8,5.4,26.1z M9.8,28
		c0.7,0.2,1.4,0.2,2.2,0.1c0.7-0.1,1.5-0.3,2.3-0.6c-0.6-0.4-1.3-0.7-2-1c-0.7-0.3-1.3-0.6-1.7-0.8c-0.2,0.4-0.3,0.9-0.5,1.5
		C9.8,27.7,9.7,28,9.8,28z M14.5,5.2c0.8,1,1.2,2.3,1.2,3.9c0,1.8-0.4,3.9-1.2,6.1c-0.8,2.2-1.7,4.6-2.6,7.1c1.2,0.4,2.3,1,3.3,1.5
		c1,0.6,2,1.2,3,1.9c1.1-0.7,2.1-1.6,3.2-2.7c1.1-1.1,2-2.3,2.8-3.6c0.8-1.3,1.5-2.7,2-4.2c0.5-1.5,0.8-3,0.8-4.4c0-1.1-0.3-2-1-2.7
		c-0.6-0.7-1.5-1.3-2.5-1.7c-1-0.4-2.1-0.7-3.3-0.9c-1.2-0.2-2.4-0.3-3.5-0.3c-0.4,0-0.8,0-1.2,0C15.1,5.2,14.8,5.2,14.5,5.2z"/>
	<path id="XMLID_21_" d="M46.4,28.2c-0.5,0.9-1.2,1.7-2.1,2.4c-0.9,0.7-1.9,1-3,1c-0.7,0-1.3-0.2-1.7-0.5c-0.4-0.3-0.7-0.6-0.9-1
		c-0.2-0.4-0.3-0.8-0.4-1.1c-0.1-0.4-0.1-0.6-0.1-0.7l-0.1,0.2c-0.5,0.6-1,1.2-1.5,1.5c-0.5,0.4-1,0.7-1.4,0.9
		c-0.5,0.2-0.9,0.4-1.2,0.4c-0.4,0.1-0.7,0.1-0.9,0.1c-1.5,0-2.7-0.6-3.5-1.7c-0.8-1.2-1.2-2.5-1.2-4c0-1.5,0.3-2.9,0.9-4.3
		c0.6-1.4,1.4-2.7,2.4-3.8c1-1.1,2.2-2.1,3.6-2.8c1.3-0.7,2.8-1.1,4.3-1.1c1.4,0,2.6,0.4,3.4,1.1c0.9,0.7,1.3,1.6,1.3,2.6
		c0,0.6-0.1,1.1-0.4,1.6c0-0.1-0.3-0.2-0.9-0.4c-0.6-0.2-1.6-0.3-3.1-0.3c-0.4,0-1,0.2-1.9,0.5c-0.9,0.3-1.7,0.7-2.6,1.3
		c-0.9,0.6-1.6,1.4-2.3,2.4c-0.7,1-1,2.2-1,3.7c0,1.2,0.2,1.9,0.6,2.3c0.4,0.3,0.8,0.5,1.2,0.5c1.1,0,2-0.4,2.8-1.1
		c0.8-0.7,1.4-1.6,1.9-2.6c0.5-1,0.9-2,1.1-3c0.2-1,0.3-1.9,0.3-2.5c0-0.2,0-0.3-0.1-0.4c-0.1-0.1-0.1-0.1-0.1-0.2
		c0-0.1,0.1-0.1,0.4-0.1c0.3,0,0.7,0.1,1.2,0.2c0.5,0.1,1,0.3,1.5,0.6c0.5,0.3,0.9,0.6,1.2,0.9c0.3,0.4,0.5,0.7,0.5,1.2
		c0,0.2-0.1,0.4-0.2,0.6c-0.5,1.3-1,2.4-1.3,3.2c-0.3,0.8-0.7,1.5-0.9,2.2c-0.3,0.7-0.4,1.1-0.4,1.2c0,0.3,0.1,0.5,0.4,0.5
		c1,0,1.7-0.3,2.2-0.8c0.5-0.5,0.9-1.1,1.2-1.7c0.3-0.6,0.5-1.2,0.6-1.7c0.1-0.5,0.3-0.8,0.6-0.9c0.3,0,0.5,0.2,0.5,0.7
		c0,0.2-0.1,0.5-0.2,0.8c-0.1,0.3-0.2,0.6-0.3,0.9c-0.1,0.3-0.2,0.5-0.3,0.8C46.5,28,46.4,28.1,46.4,28.2z"/>
	<path id="XMLID_23_" d="M48.9,31.8c-0.7,0-1.3-0.1-1.8-0.3c-0.5-0.2-0.8-0.5-1.1-0.8c-0.2-0.3-0.4-0.7-0.5-1.2
		c-0.1-0.4-0.2-0.8-0.2-1.2c0-1,0.2-2,0.5-3c0.3-1.1,0.6-2.1,1-3.2c0.4-1.1,0.7-2.1,1-3.2c0.3-1.1,0.5-2.1,0.5-3.1
		c0-0.4-0.1-0.6-0.2-0.8c-0.1-0.2-0.3-0.3-0.4-0.3c-0.1-0.1-0.3-0.1-0.4-0.1c-0.1,0-0.2,0-0.2-0.1c0-0.2,0.5-0.2,1.6-0.2
		c0.6,0,1.2,0.1,1.8,0.2c0.6,0.1,1.1,0.3,1.5,0.6c0.5,0.3,0.8,0.6,1.1,1.1c0.3,0.4,0.4,1,0.4,1.6c0,0.6-0.1,1.4-0.4,2.2
		c-0.3,0.8-0.6,1.6-1,2.5c-0.4,0.9-0.8,1.8-1.2,2.7c-0.4,0.9-0.7,1.9-0.9,2.9c-0.1,0.2-0.2,0.4-0.2,0.6c0,0.3,0.1,0.6,0.3,0.8
		c0.2,0.2,0.5,0.3,0.9,0.3c0.7,0,1.2-0.3,1.7-0.8c0.4-0.5,0.8-1.1,1.1-1.7c0.3-0.6,0.5-1.2,0.7-1.7c0.2-0.5,0.4-0.8,0.6-0.8
		c0.3,0,0.4,0.1,0.5,0.3c0,0.2,0,0.3,0,0.4c-0.2,1.3-0.6,2.4-1.1,3.2c-0.5,0.8-1.1,1.5-2,2.2C51.6,31.4,50.4,31.8,48.9,31.8z
		 M53.8,6.4c0.4,0,0.9,0.1,1.3,0.3c0.4,0.2,0.7,0.6,0.7,1.2c0,0.5-0.1,1.1-0.4,1.9c-0.3,0.7-0.5,1.4-0.8,2.1
		c-0.1,0.2-0.4,0.5-0.9,0.9c-0.5,0.4-1.2,0.6-2.2,0.6c-0.6,0-1-0.1-1.2-0.2c-0.2-0.2-0.4-0.3-0.4-0.5c0.2-1.2,0.5-2.2,0.8-2.9
		c0.3-0.8,0.5-1.4,0.5-1.8c0-0.4-0.1-0.5-0.4-0.5c-0.2,0-0.4,0-0.4-0.1c0-0.1,0.4-0.2,1.1-0.4C52.2,6.5,53,6.4,53.8,6.4z"/>
	<path id="XMLID_26_" d="M70.8,18.3c-0.2,0.9-0.4,1.8-0.6,2.8c-0.2,1-0.5,1.9-0.7,2.8c-0.2,0.9-0.4,1.8-0.6,2.7
		c-0.2,0.8-0.2,1.6-0.2,2.3c0,0.7,0.1,1.3,0.3,1.8c0.2,0.5,0.6,0.8,1.2,0.9c0,0.1-0.4,0.2-1.1,0.5c-0.7,0.2-1.5,0.3-2.4,0.3
		c-0.9,0-1.6-0.2-2.3-0.6c-0.7-0.4-1-1.1-1-2.2c0-1,0.1-2,0.4-2.9c0.3-0.9,0.5-1.8,0.8-2.6c0.3-0.8,0.6-1.7,0.9-2.6
		c0.3-0.8,0.4-1.7,0.5-2.7c0-0.4-0.1-0.6-0.3-0.6c-0.7,0-1.5,0.4-2.3,1.1c-0.9,0.7-1.7,1.7-2.4,2.7c-0.7,1.1-1.4,2.2-1.9,3.3
		c-0.5,1.2-0.8,2.2-0.8,3c0,0.4,0.1,0.8,0.4,1.2c0.2,0.4,0.7,0.8,1.3,1.1c0,0.1-0.3,0.2-0.8,0.3c-0.6,0.1-1,0.2-1.4,0.2
		c-0.7,0-1.3-0.1-1.8-0.3s-0.9-0.5-1.1-0.8c-0.3-0.3-0.4-0.6-0.5-1C54,28.7,54,28.3,54,27.9c0-0.2,0-0.3,0.1-0.5
		c0-0.2,0.1-0.3,0.1-0.4c0.6-3,1.2-5.5,1.8-7.5c0.5-2,0.8-3.3,0.8-4c0-0.4-0.1-0.6-0.2-0.8c-0.1-0.2-0.3-0.3-0.4-0.4
		c-0.1-0.1-0.3-0.1-0.4-0.1c-0.1,0-0.2,0-0.2-0.1c0.1,0,0.3,0,0.4-0.1c0.3-0.1,0.7-0.1,1.2-0.1c0.6,0,1.1,0,1.7,0.1
		c0.6,0,1.1,0.2,1.6,0.4c0.5,0.2,0.8,0.6,1.2,1.1c0.3,0.5,0.5,1.2,0.5,2c0,0.2,0,0.5-0.1,0.8c-0.1,0.3-0.1,0.6-0.1,1
		c0.5-0.7,1.1-1.3,1.8-1.9c0.6-0.6,1.3-1.1,1.9-1.5c0.6-0.4,1.3-0.8,1.9-1c0.6-0.2,1.1-0.4,1.4-0.4c0.6,0,1.2,0.2,1.6,0.7
		c0.4,0.5,0.6,1.1,0.6,1.9c0,0.2,0,0.4,0,0.6C70.9,17.9,70.9,18.1,70.8,18.3z"/>
	<path id="XMLID_28_" d="M77.1,15.2c-1.5-0.4-2.4-1-2.9-1.8c-0.5-0.7-0.8-1.5-0.8-2.2c0-0.9,0.2-1.7,0.6-2.4
		c0.4-0.8,0.9-1.5,1.5-2.2c0.6-0.7,1.3-1.3,2.1-2c0.8-0.6,1.6-1.2,2.4-1.7c1.1-0.7,2.5-1.3,4-1.8c1.6-0.5,3.2-0.7,4.8-0.8
		c1.7-0.1,3.3,0,4.9,0.3c1.6,0.3,3.1,0.8,4.4,1.6c1.3,0.8,2.3,1.8,3.1,3.1c0.8,1.3,1.2,2.9,1.2,4.7c0,1.1-0.2,2-0.5,2.9
		c-0.3,0.9-0.8,1.6-1.3,2.3c-0.5,0.6-1.1,1.1-1.8,1.5c-0.6,0.3-1.2,0.5-1.9,0.5c-0.4,0-0.7-0.1-1-0.2c2.3,0.1,4.1,0.7,5.4,1.8
		c1.3,1.1,2,2.9,2.1,5.5c0,0.4,0,0.8-0.1,1.4c-0.1,0.5-0.2,1.1-0.5,1.8c-0.2,0.6-0.5,1.3-1,1.9c-0.4,0.6-1,1.3-1.7,1.8
		c1.1,0.4,1.9,0.8,2.7,1c0.7,0.2,1.5,0.4,2.2,0.5c0.7,0.1,1.4,0,1.9-0.4c0.1,0.4-0.1,1-0.5,1.7c-0.4,0.7-1,1.3-1.9,1.7
		c-0.8,0.4-1.9,0.6-3.3,0.5c-1.3-0.1-2.9-0.7-4.8-1.9c-1.2,0.6-2.6,1.1-4.1,1.4s-3.2,0.4-4.9,0.4c-1.7-0.1-3.3-0.3-4.9-0.7
		c-1.6-0.4-3.1-1-4.3-1.9c-1.3-0.8-2.3-1.8-3.1-3.1c-0.8-1.2-1.2-2.7-1.2-4.4c0-0.8,0.1-1.7,0.4-2.5c0.3-0.8,0.7-1.4,1.3-2
		c0.6-0.6,1.4-0.9,2.3-1c0.9-0.1,1.8-0.1,2.7,0.2c0.4-1.4,0.8-2.6,1.2-3.7c0.3-1,0.6-1.9,0.8-2.7c0.2-0.8,0.4-1.4,0.5-2
		c0.1-0.6,0.2-1.1,0.2-1.7c0-1-0.2-1.7-0.5-2.2c-0.3-0.5-0.7-0.8-1.1-1c-0.8,0.6-1.7,1.3-2.5,2.1c-0.9,0.8-1.5,1.7-2,2.8
		c0.2-0.3,0.4-0.6,0.7-0.8c0.3-0.3,0.6-0.5,0.9-0.7c0.3-0.2,0.5-0.4,0.8-0.5c0.2-0.1,0.4-0.2,0.5-0.2c0.1,0,0.1,0,0.2,0.1
		c0,0.1,0,0.1-0.2,0.2c-0.1,0-0.4,0.3-0.7,0.8c-0.4,0.5-0.7,1-1.1,1.5c-0.4,0.6-0.7,1.1-1,1.6c-0.3,0.5-0.4,0.7-0.4,0.8
		c-0.1,0-0.1,0-0.2-0.1V15.2z M76.7,25.8c0,0.7,0.2,1.4,0.6,2.1c0.4,0.7,0.8,1.3,1.2,1.9c-0.2-0.3-0.4-0.6-0.4-0.9
		c0-0.2,0.1-0.6,0.3-1.2c0.2-0.6,0.4-1.1,0.7-1.7c0.3-0.6,0.5-1.1,0.8-1.6c0.3-0.5,0.6-0.7,0.9-0.7c0.4,0,0.8,0.1,1.2,0.2
		c0.4,0.2,0.6,0.3,0.7,0.3v0.1c-1-0.6-1.7-1-2.2-1.1c-0.4-0.1-0.8-0.2-1-0.2c-1-0.1-1.8,0.1-2.2,0.6C76.8,24.2,76.6,24.9,76.7,25.8z
		 M78.9,30.1c0.8,0.8,1.8,1.4,2.9,1.7c1.1,0.3,2.2,0.5,3.3,0.5c1.2,0,2.3,0,3.5-0.2c1.2-0.2,2.4-0.4,3.5-0.7c-1.5-1.1-3-2.1-4.4-3
		c-1.4-1-2.6-1.8-3.6-2.5c-0.1,0.3-0.3,0.7-0.5,1.2c-0.2,0.5-0.3,1.1-0.5,1.6C83,29.2,83,29.8,83,30.2c0.1,0.5,0.3,0.9,0.7,1.1
		c0,0.1-0.2,0.1-0.5,0.1c-0.8,0-1.6-0.1-2.5-0.4C79.9,30.8,79.3,30.5,78.9,30.1z M90.6,4.7c-1.1,0-2.2,0.2-3.3,0.5
		C86.2,5.5,85.1,6,84,6.5c1.7,0,3.1,0.3,4.2,0.9c1.1,0.6,1.6,1.8,1.6,3.4c0,0.8-0.1,1.8-0.4,2.7c-0.3,1-0.6,2-1.1,3
		c-0.4,1.1-0.9,2.1-1.5,3.2c-0.5,1.1-1.1,2.2-1.5,3.3h0.1c1.5,0.8,3.3,1.8,5.2,2.9c1.9,1.1,4,2.3,6.3,3.5c0.1-0.1,0.3-0.3,0.6-0.5
		c0.3-0.2,0.6-0.5,0.9-0.9c0.3-0.4,0.6-0.9,0.9-1.4c0.3-0.6,0.4-1.3,0.5-2.1c0-1.1-0.1-2.1-0.4-2.8c-0.3-0.7-0.7-1.3-1.1-1.7
		c-0.5-0.4-1-0.7-1.6-0.8c-0.6-0.1-1.3-0.2-2-0.2h0.1c-1.3,0.2-2.4,0-3.3-0.5c-0.9-0.5-1.4-1.4-1.4-2.7c0-0.5,0.1-0.7,0.2-0.7
		c0,0,0.3,0.1,0.8,0.3c0.5,0.2,1.3,0.3,2.5,0.3c1,0,1.9-0.1,2.6-0.4c0.7-0.3,1.3-0.7,1.7-1.2c0.4-0.5,0.8-1,1-1.6
		c0.2-0.6,0.3-1.2,0.3-1.9c0-2.2-0.7-3.8-2.2-4.7C95.2,5.1,93.2,4.7,90.6,4.7z"/>
	<path id="XMLID_33_" d="M109.8,31.9c-1.1,0-1.9-0.3-2.5-0.9c-0.6-0.5-1.1-1.1-1.4-1.8c-0.3-0.7-0.5-1.3-0.6-2
		c-0.1-0.7-0.2-1.2-0.2-1.6c0-2.1,0.4-3.9,1.1-5.4c0.7-1.5,1.6-2.8,2.6-3.8c1-1,2.1-1.7,3.2-2.2c1.1-0.5,2.1-0.7,2.9-0.7
		c1.2,0,2.3,0.4,3.2,1.3c1,0.9,1.4,2.1,1.4,3.5c0,1.1-0.2,2-0.7,2.9s-1.1,1.6-1.8,2.2c-0.7,0.6-1.6,1-2.5,1.3
		c-0.9,0.3-1.9,0.5-2.9,0.5c-0.8,0-1.6-0.1-2.4-0.4c-0.1,0.3-0.2,0.7-0.3,1c-0.1,0.3-0.1,0.7-0.1,1c0,0.8,0.2,1.5,0.6,2.2
		c0.4,0.6,1.1,0.9,2.2,0.9c1.2,0,2.4-0.3,3.4-1c1.1-0.6,2-1.4,2.9-2.3c0.8-0.9,1.5-1.7,2-2.6c0.5-0.8,0.8-1.5,0.9-1.9l0.1-0.1
		c0.1-0.1,0.2-0.1,0.3-0.1c0.1,0,0.2,0.1,0.4,0.2c0.1,0.1,0.2,0.2,0.2,0.5v0.2c-0.4,1.3-1.1,2.5-1.9,3.6c-0.8,1.1-1.7,2.1-2.8,2.9
		c-1.1,0.8-2.2,1.4-3.5,1.9C112.5,31.7,111.2,31.9,109.8,31.9z M114,18.2c-0.4,0-0.8,0.3-1.2,0.7c-0.5,0.4-0.9,0.9-1.3,1.5
		c-0.4,0.6-0.8,1.1-1.1,1.7c-0.3,0.6-0.4,1-0.4,1.3c0,0.1,0.1,0.2,0.4,0.2c0.2,0.1,0.5,0.1,0.8,0.1c0.4,0,0.9-0.1,1.5-0.2
		c0.6-0.1,1.1-0.3,1.6-0.6c0.5-0.3,0.9-0.7,1.3-1.2c0.4-0.5,0.5-1.2,0.5-2.1c0-0.6-0.2-1.1-0.6-1.3C115.1,18,114.6,18,114,18.2z"/>
	<path id="XMLID_36_" d="M137.3,28.2c-0.5,0.9-1.2,1.7-2.1,2.4c-0.9,0.7-1.9,1-3,1c-0.7,0-1.3-0.2-1.7-0.5c-0.4-0.3-0.7-0.6-0.9-1
		c-0.2-0.4-0.3-0.8-0.4-1.1c-0.1-0.4-0.1-0.6-0.1-0.7l-0.1,0.2c-0.5,0.6-1,1.2-1.5,1.5c-0.5,0.4-1,0.7-1.4,0.9
		c-0.5,0.2-0.9,0.4-1.2,0.4c-0.4,0.1-0.7,0.1-0.9,0.1c-1.5,0-2.7-0.6-3.5-1.7c-0.8-1.2-1.2-2.5-1.2-4c0-1.5,0.3-2.9,0.9-4.3
		c0.6-1.4,1.4-2.7,2.4-3.8c1-1.1,2.2-2.1,3.6-2.8c1.3-0.7,2.8-1.1,4.3-1.1c1.4,0,2.5,0.4,3.4,1.1c0.9,0.7,1.3,1.6,1.3,2.6
		c0,0.6-0.1,1.1-0.4,1.6c0-0.1-0.3-0.2-0.9-0.4c-0.6-0.2-1.6-0.3-3.1-0.3c-0.4,0-1,0.2-1.9,0.5c-0.9,0.3-1.7,0.7-2.6,1.3
		c-0.9,0.6-1.6,1.4-2.3,2.4c-0.7,1-1,2.2-1,3.7c0,1.2,0.2,1.9,0.6,2.3c0.4,0.3,0.8,0.5,1.2,0.5c1.1,0,2-0.4,2.8-1.1
		c0.8-0.7,1.4-1.6,1.9-2.6c0.5-1,0.9-2,1.1-3c0.2-1,0.3-1.9,0.3-2.5c0-0.2,0-0.3-0.1-0.4c-0.1-0.1-0.1-0.1-0.1-0.2
		c0-0.1,0.1-0.1,0.4-0.1c0.3,0,0.7,0.1,1.2,0.2c0.5,0.1,1,0.3,1.5,0.6c0.5,0.3,0.9,0.6,1.2,0.9s0.5,0.7,0.5,1.2
		c0,0.2-0.1,0.4-0.2,0.6c-0.5,1.3-1,2.4-1.3,3.2c-0.3,0.8-0.7,1.5-0.9,2.2c-0.3,0.7-0.4,1.1-0.4,1.2c0,0.3,0.1,0.5,0.4,0.5
		c1,0,1.7-0.3,2.2-0.8c0.5-0.5,0.9-1.1,1.2-1.7c0.3-0.6,0.5-1.2,0.6-1.7c0.1-0.5,0.3-0.8,0.6-0.9c0.3,0,0.5,0.2,0.5,0.7
		c0,0.2-0.1,0.5-0.2,0.8c-0.1,0.3-0.2,0.6-0.3,0.9c-0.1,0.3-0.2,0.5-0.3,0.8C137.3,28,137.3,28.1,137.3,28.2z"/>
	<path id="XMLID_38_" d="M139.6,4.8c-0.1,0-0.2-0.1-0.2-0.1c0-0.1,0.3-0.2,0.8-0.3c0.5-0.1,1.1-0.2,1.8-0.2c0.4,0,0.9,0.1,1.4,0.2
		c0.5,0.1,1,0.3,1.5,0.5c0.4,0.2,0.8,0.4,1.2,0.7c0.3,0.3,0.5,0.6,0.5,1c0.3,0,0.7-0.1,1.2-0.1c0.5,0,1,0,1.5,0c0.9,0,1.8,0,2.8,0.1
		c1,0,1.9,0.2,2.7,0.4c0.8,0.2,1.5,0.5,2,1c0.5,0.4,0.8,1.1,0.8,1.9c0,0.6-0.1,0.8-0.3,0.8l-0.1-0.1c-0.2-0.3-0.6-0.5-1.3-0.5
		c-0.7-0.1-1.5-0.1-2.5,0c-1,0.1-2,0.2-3.1,0.3c-1.1,0.2-2.1,0.3-3.1,0.5c-1,0.2-1.8,0.3-2.5,0.5c-0.7,0.1-1.1,0.2-1.2,0.2
		c0,0,0.1,0,0.1,0c0,0,0.1,0,0.2,0c0.5,0,1.1,0.1,1.6,0.2c0.6,0.1,0.8,0.3,0.8,0.7c0,0.1,0,0.3-0.1,0.6c-0.4,1.1-0.9,2.3-1.6,3.7
		c-0.7,1.4-1.4,2.8-2.1,4.2c-0.7,1.4-1.3,2.8-1.8,4.2c-0.5,1.3-0.8,2.5-0.8,3.5c0,0.3,0.1,0.6,0.2,1c0.1,0.4,0.4,0.6,0.9,0.6
		c1,0,1.8-0.3,2.3-0.9c0.6-0.6,1.1-1.2,1.4-1.9c0.4-0.7,0.7-1.3,0.9-1.9c0.2-0.6,0.5-0.9,0.7-0.9c0.2,0,0.3,0.1,0.4,0.2
		c0,0.2,0.1,0.3,0.1,0.4c0,0.1-0.1,0.5-0.3,1.2c-0.2,0.7-0.5,1.4-1.1,2.3c-0.5,0.8-1.3,1.6-2.2,2.2c-1,0.7-2.2,1-3.8,1
		c-0.8,0-1.4-0.1-1.9-0.3c-0.5-0.2-0.9-0.5-1.1-0.8c-0.3-0.3-0.4-0.7-0.5-1.2c-0.1-0.4-0.2-0.9-0.2-1.3c0-1.3,0.2-2.6,0.5-4
		s0.8-2.8,1.2-4.3c0.5-1.5,1-2.9,1.4-4.4s0.8-2.8,1.1-4.1c-1.8-0.1-3.2-0.6-4-1.4c-0.9-0.8-1.3-1.8-1.3-3c0-0.3,0.1-0.7,0.2-1.2
		c0.1-0.5,0.4-0.7,0.6-0.7c0,0.4,0.2,0.7,0.5,0.9c0.3,0.2,0.8,0.5,1.4,0.6c0.7,0.2,1.7,0.3,3,0.3c0-0.1,0-0.2-0.1-0.4
		c0-0.2-0.1-0.4-0.2-0.7c-0.1-0.2-0.1-0.5-0.2-0.7C139.9,5,139.8,4.8,139.6,4.8z"/>
</g>
</svg>
