<?xml version="1.0" encoding="iso-8859-1"?>
<!-- Generator: Adobe Illustrator 19.0.0, SVG Export Plug-In . SVG Version: 6.00 Build 0)  -->
<svg xmlns="http://www.w3.org/2000/svg" xmlns:xlink="http://www.w3.org/1999/xlink" version="1.1" id="Capa_1" x="0px" y="0px" viewBox="0 0 294.843 294.843" style="enable-background:new 0 0 294.843 294.843;" xml:space="preserve" width="512px" height="512px">
<g>
	<path d="M109.699,78.969c-1.876,1.067-3.035,3.059-3.035,5.216v131.674c0,3.314,2.687,6,6,6s6-2.686,6-6V94.74l88.833,52.883   l-65.324,42.087c-2.785,1.795-3.589,5.508-1.794,8.293c1.796,2.786,5.508,3.59,8.294,1.794l73.465-47.333   c1.746-1.125,2.786-3.073,2.749-5.15c-0.037-2.077-1.145-3.987-2.93-5.05L115.733,79.029   C113.877,77.926,111.575,77.902,109.699,78.969z" fill="#FFFFFF"/>
</g>
<g>
</g>
<g>
</g>
<g>
</g>
<g>
</g>
<g>
</g>
<g>
</g>
<g>
</g>
<g>
</g>
<g>
</g>
<g>
</g>
<g>
</g>
<g>
</g>
<g>
</g>
<g>
</g>
<g>
</g>
</svg>
